<svg xmlns="http://www.w3.org/2000/svg" width="800" height="800" viewBox="0 -50 1100 1100"><path d="M2 776q5-8 16-1 250 145 544 145 195.999 0 387-73 5-2 14.5-6t13.5-6q15-6 23.5 6t-5.5 22q-18 13-46 30-86.001 51-192 79-106 28-207 28-156 0-295-54.5T6 792q-6-5-6-10 0-3 2-6m301-285q0-69 34-118t93-74q54-23 133-33 27-3 88-8v-17q0-64-14-86-21-30-66-30h-8q-33 3-57 21c-24 18-26.334 28.667-31 50q-4 20-20 23l-115-14q-17-4-17-18 0-3 1-7 17-89 83.5-132T563 0h25q114 0 178 59a190.5 190.5 0 0 1 18.5 21.5Q792.999 92 798 101t9 26 6 23.5 3 28 1 25.5v242q0 26 7.5 47.5c7.5 21.5 9.833 24.667 14.5 31q7 9.5 23 30.5 6 9 6 16 0 8-8 14-83.001 72-90 78-12 9-29 2-14-12-24.5-23c-10.5-11-12-12.667-15-16s-7.834-9.833-14.5-19.5Q677 592 673 587q-56 61-110 76-34 10-84 10-77 0-126.5-47.5C303 578 303 549 303 491m172-20q0 39 19.5 62.5C514 557 525 557 547 557q3 0 8.5-1 5.499-1 7.5-1 42-11 65-54 11-19 16.5-41.5 5.499-22.5 6-36.5.5-14 .5-46v-25q-58 0-88 8-88 25-88 111m420 322q2-4 6-8 24.999-17 48-23 38-10 74-11 10-1 19 1 45 4 54 15 4 6 4 18v7q0 35-19 82.5t-53 76.5q-5.001 4-9 4-2 0-4-1-6-3-3-11 37-87 37-121 0-11-4-16-10-12-56-12-17 0-40 2-25 3-46 6-6 0-8-2t-1-4q0-1 1-3"/></svg>